<?xml version="1.0" encoding="UTF-8"?>
<svg viewBox="0 0 1200 300" xmlns="http://www.w3.org/2000/svg">
  <!-- Background -->
  <rect width="1200" height="300" fill="#EEEEEE"/>
  
  <!-- Decorative Elements -->
  <rect x="20" y="20" width="1160" height="260" fill="#FFFFFF" stroke="#8A6534" stroke-width="4"/>
  
  <!-- Logo -->
  <g transform="translate(80, 50)">
    <!-- Background Square -->
    <rect x="10" y="10" width="180" height="180" fill="#EEEEEE" stroke="#8A6534" stroke-width="4"/>
    
    <!-- Logo Text -->
    <g font-family="monospace" font-weight="bold" letter-spacing="-2">
      <!-- Dev Text -->
      <text x="34" y="110" font-size="42" fill="#444444">Dev</text>
      
      <!-- Lore Text -->
      <text x="100" y="110" font-size="42" fill="#8A6534">Lore</text>
    </g>
    
    <!-- Decorative Code Elements -->
    <g stroke="#8A6534" stroke-width="2" fill="none">
      <!-- HTML Tag -->
      <path d="M30,40 L45,50 L30,60" />
      <path d="M60,40 L45,50 L60,60" />
      
      <!-- Curly Brace -->
      <path d="M140,40 C145,40 150,43 150,48 C150,53 145,55 140,55 C145,55 150,57 150,62 C150,67 145,70 140,70" />
      
      <!-- Semicolon -->
      <circle cx="165" cy="50" r="3" fill="#8A6534" />
      <circle cx="165" cy="62" r="3" fill="#8A6534" />
    </g>
    
    <!-- Bottom Code Line -->
    <line x1="30" y1="140" x2="170" y2="140" stroke="#8A6534" stroke-width="2" stroke-dasharray="5,5" />
    <line x1="30" y1="160" x2="120" y2="160" stroke="#8A6534" stroke-width="2" stroke-dasharray="5,5" />
  </g>
  
  <!-- Title and Tagline -->
  <text x="300" y="90" font-family="monospace" font-weight="bold" font-size="64" fill="#444444">Dev<tspan fill="#8A6534">Lore</tspan></text>
  <text x="300" y="150" font-family="sans-serif" font-size="24" fill="#8A6534">A complete journey through modern web development</text>
  
  <!-- Tech Icons -->
  <g transform="translate(300, 180)">
    <!-- HTML Icon -->
    <rect x="0" y="0" width="50" height="50" fill="#FFFFFF" stroke="#8A6534" stroke-width="2"/>
    <text x="25" y="32" font-family="monospace" font-size="18" text-anchor="middle" fill="#8A6534">HTML</text>
    
    <!-- CSS Icon -->
    <rect x="70" y="0" width="50" height="50" fill="#FFFFFF" stroke="#8A6534" stroke-width="2"/>
    <text x="95" y="32" font-family="monospace" font-size="18" text-anchor="middle" fill="#8A6534">CSS</text>
    
    <!-- JS Icon -->
    <rect x="140" y="0" width="50" height="50" fill="#FFFFFF" stroke="#8A6534" stroke-width="2"/>
    <text x="165" y="32" font-family="monospace" font-size="18" text-anchor="middle" fill="#8A6534">JS</text>
    
    <!-- React Icon -->
    <rect x="210" y="0" width="50" height="50" fill="#FFFFFF" stroke="#8A6534" stroke-width="2"/>
    <text x="235" y="32" font-family="monospace" font-size="14" text-anchor="middle" fill="#8A6534">React</text>
    
    <!-- Node Icon -->
    <rect x="280" y="0" width="50" height="50" fill="#FFFFFF" stroke="#8A6534" stroke-width="2"/>
    <text x="305" y="32" font-family="monospace" font-size="14" text-anchor="middle" fill="#8A6534">Node</text>
  </g>
  
  <!-- Decorative Code Lines -->
  <line x1="800" y1="60" x2="1100" y2="60" stroke="#8A6534" stroke-width="2" stroke-dasharray="10,5"/>
  <line x1="850" y1="90" x2="1050" y2="90" stroke="#8A6534" stroke-width="2" stroke-dasharray="10,5"/>
  <line x1="900" y1="120" x2="1000" y2="120" stroke="#8A6534" stroke-width="2" stroke-dasharray="10,5"/>
  
  </svg>