<?xml version="1.0" encoding="UTF-8"?>
<svg viewBox="0 0 200 200" xmlns="http://www.w3.org/2000/svg">
  <!-- Background Square -->
  <rect x="10" y="10" width="180" height="180" fill="#222222" stroke="#FED792" stroke-width="4"/>
  
  <!-- Logo Text -->
  <g font-family="monospace" font-weight="bold" letter-spacing="-2">
    <!-- Dev Text -->
    <text x="34" y="110" font-size="42" fill="#FFFFFF">Dev</text>
    
    <!-- Lore Text -->
    <text x="100" y="110" font-size="42" fill="#FED792">Lore</text>
  </g>
  
  <!-- Decorative Code Elements -->
  <g stroke="#8A6534" stroke-width="2" fill="none">
    <!-- HTML Tag -->
    <path d="M30,40 L45,50 L30,60" />
    <path d="M60,40 L45,50 L60,60" />
    
    <!-- Curly Brace -->
    <path d="M140,40 C145,40 150,43 150,48 C150,53 145,55 140,55 C145,55 150,57 150,62 C150,67 145,70 140,70" />
    
    <!-- Semicolon -->
    <circle cx="165" cy="50" r="3" fill="#8A6534" />
    <circle cx="165" cy="62" r="3" fill="#8A6534" />
  </g>
  
  <!-- Bottom Code Line -->
  <line x1="30" y1="140" x2="170" y2="140" stroke="#8A6534" stroke-width="2" stroke-dasharray="5,5" />
  <line x1="30" y1="160" x2="120" y2="160" stroke="#8A6534" stroke-width="2" stroke-dasharray="5,5" />
</svg>